<svg xmlns="http://www.w3.org/2000/svg" xml:space="preserve" width="200" height="200" viewBox="0 0 200 200"><g id="group_back-hair"><g id="symbol_back-hair-4" style="display:inline"><path d="M152.344 103.35c-24.733 0-45.601 17.24-45.603 39.177-2.143 14.757 7.129 27.097 7.81 29.793 7.738-13.96 18.9-43.892 37.832-44.588 18.932.696 31.591 27.492 39.329 41.453.681-2.696 8.181-8.902 7.947-28.021-.002-21.938-22.506-37.813-47.24-37.814l-.036.002z" style="display:inline;opacity:1;fill:#007b81;fill-opacity:1;stroke:#000;stroke-width:.93356;stroke-linecap:round;stroke-linejoin:round;stroke-dasharray:none;stroke-opacity:1" transform="translate(-146.768 -156.045)scale(1.6194)"/><path d="m43.263 136.852-9.712.883.662 12.581-8.388 2.87 2.428 12.802-13.464 1.325 9.933 4.856-2.208 8.829 7.726-3.311 5.96 9.27.441-15.671 9.712-5.298-1.104-11.92 10.595-.22-3.09-10.816zm90.68 14.072 8.988 3.785-4.444 11.789 7.124 5.276-6.194 11.465 12.43 5.343-10.938 1.617-.572 9.083-6.359-5.497-8.489 7.029 4.33-15.069-7.65-7.992 4.663-11.024-10.03-3.421 6.223-9.37z" style="fill:#007b81;fill-opacity:1;stroke:#000;stroke-width:1.51181;stroke-linecap:round;stroke-linejoin:round;stroke-opacity:1;paint-order:fill markers stroke" transform="rotate(-8.82 101.317 70.548)"/></g><g id="symbol_back-hair-3" style="display:inline"><path d="M152.344 103.35c-24.733 0-45.601 17.24-45.603 39.177-2.143 14.757 7.129 27.097 7.81 29.793 7.738-13.96 18.9-43.892 37.832-44.588 18.932.696 31.591 27.492 39.329 41.453.681-2.696 7.025-9.095 6.79-28.214-.002-21.938-21.349-37.62-46.082-37.621l-.037.002z" style="display:inline;opacity:1;fill:#007b81;fill-opacity:1;stroke:#000;stroke-width:.93356;stroke-linecap:round;stroke-linejoin:round;stroke-dasharray:none;stroke-opacity:1" transform="translate(-146.768 -156.045)scale(1.6194)"/><path d="M25.597 82.098s-.312 100.827 3.746 107.07 14.983 8.428 14.983 8.428 12.56-13.544 29.343-17.48l25.285-5.932.312-21.227zm148.806 0s.312 100.827-3.746 107.07-14.983 8.428-14.983 8.428-12.56-13.544-29.343-17.48l-25.285-5.932-.312-21.227z" style="fill:#007b81;fill-opacity:1;stroke:#000;stroke-width:1.51181;stroke-linecap:round;stroke-linejoin:round;stroke-opacity:1;paint-order:fill markers stroke"/></g><g id="symbol_back-hair-2" style="display:inline"><path d="M32.621 51.662s-8.272 20.134-12.799 29.81C15.296 91.15 2.03 95.989 2.03 95.989s3.59 4.995 8.116 5.776 7.335 0 7.335 0-1.56 19.352-6.242 23.879c-4.682 4.526-9.052 7.336-9.052 7.336s15.762 4.214 23.878 0c8.117-4.215 8.43-6.711 8.43-6.711s-1.562 16.856 2.496 23.412 9.053 7.648 9.053 7.648-3.169-10.137-1.404-14.75c1.467-3.834 9.052-8.35 9.052-8.35zm19.803 90.045s-.994 9.05 5.076 15.451 10.705 6.623 10.705 6.623-1.717-3.788-1.435-5.74c.207-1.436 2.209-3.752 2.209-3.752s2.149 6.904 4.744 9.16c3.09 2.688 11.59 4.084 11.59 4.084s.64-4.532 2.207-5.959c2.308-2.104 9.048-2.428 9.048-2.428l.774-7.615zm114.955-90.045s8.272 20.134 12.799 29.81c4.526 9.678 17.793 14.516 17.793 14.516s-3.59 4.995-8.116 5.776-7.335 0-7.335 0 1.56 19.352 6.242 23.879c4.682 4.526 9.052 7.336 9.052 7.336s-15.762 4.214-23.878 0c-8.117-4.215-8.43-6.711-8.43-6.711s1.562 16.856-2.496 23.412-9.053 7.648-9.053 7.648 3.169-10.137 1.404-14.75c-1.467-3.834-9.052-8.35-9.052-8.35zm-19.803 90.045s.994 9.05-5.076 15.451-10.705 6.623-10.705 6.623 1.717-3.788 1.435-5.74c-.207-1.436-2.209-3.752-2.209-3.752s-2.149 6.904-4.744 9.16c-3.09 2.688-11.59 4.084-11.59 4.084s-.64-4.532-2.207-5.959c-2.308-2.104-9.048-2.428-9.048-2.428l-.774-7.615z" style="display:inline;fill:#007b81;fill-opacity:1;stroke:#000;stroke-width:1.51181;stroke-linecap:round;stroke-linejoin:round;stroke-dasharray:none;stroke-opacity:1;paint-order:fill markers stroke"/><path d="M152.344 103.35c-24.733 0-44.784 17.784-44.785 39.722.037 2.763 4.675 12.104 5.356 14.8 7.738-13.96 20.536-29.444 39.468-30.14 18.932.696 31.319 15.77 39.056 29.73.682-2.695 5.728-11.627 5.766-14.39-.002-21.938-20.052-39.721-44.785-39.722l-.037.002z" style="display:inline;opacity:1;fill:#007b81;fill-opacity:1;stroke:#000;stroke-width:.93356;stroke-linecap:round;stroke-linejoin:round;stroke-dasharray:none;stroke-opacity:1" transform="translate(-146.768 -156.045)scale(1.6194)"/></g><g id="symbol_back-hair-1" style="display:inline;opacity:1"><path d="M108.968 133.474s-11.972 32.592-5.51 46.971c5.084 11.312 30.51 21.293 30.51 21.293-1.778-2.04-2.851-2.87-2.136-6.808 0 0 1.503 3.586 4.983 5.792 3.608 2.286 12.04 2.834 12.04 2.834 1.386-4.492 1.112-8.073.47-12.611zm86.828 0s11.972 32.592 5.51 46.971c-5.084 11.312-30.51 21.293-30.51 21.293 1.778-2.04 2.851-2.87 2.136-6.808 0 0-1.503 3.586-4.983 5.792-3.608 2.286-12.04 2.834-12.04 2.834-1.386-4.492-1.112-8.073-.47-12.611z" style="fill:#007b81;fill-opacity:1;stroke:#000;stroke-width:.93356;stroke-linecap:round;stroke-linejoin:round;stroke-dasharray:none;stroke-opacity:1;paint-order:fill markers stroke" transform="translate(-146.768 -156.045)scale(1.6194)"/><path d="M152.344 103.35c-24.733 0-44.784 17.784-44.785 39.722.037 2.763 4.402 12.787 5.084 15.483 7.736-13.96 20.959-30.004 39.74-30.819 18.78.815 32.001 16.86 39.738 30.819.681-2.696 5.046-12.72 5.084-15.483-.002-21.938-20.052-39.721-44.785-39.722l-.037.002z" style="display:inline;fill:#007b81;fill-opacity:1;stroke:#000;stroke-width:.93356;stroke-linecap:round;stroke-linejoin:round;stroke-dasharray:none;stroke-opacity:1" transform="translate(-146.768 -156.045)scale(1.6194)"/></g></g><g id="group_face" transform="translate(-148.926 -155.866)scale(1.6194)"><g id="symbol_face-2" style="display:inline"><path d="m153.715 191.559-2.71.07s.663 4.746-.22 7.615c-.883 2.87-5.543 4.706-5.367 6.48.592 5.965 6.904 8.802 8.297 9.358 1.393-.556 7.704-3.393 8.297-9.357.176-1.775-4.485-3.611-5.367-6.48-.883-2.87-.221-7.616-.221-7.616z" style="fill:#ffeccf;fill-opacity:1;stroke:#000;stroke-width:.70017;stroke-dasharray:none;stroke-opacity:1"/><path d="M115.358 165.472s-2.61-3.159-5.148-.29c-2.539 2.87.51 9.382 4.372 11.479s4.749-1.698 4.749-1.698zm76.713 0s2.61-3.159 5.148-.29c2.538 2.87-.51 9.382-4.373 11.479-3.862 2.096-4.748-1.698-4.748-1.698z" style="fill:#ffeccf;fill-opacity:1;stroke:#000;stroke-width:.93356;stroke-dasharray:none;stroke-opacity:1"/><path d="M153.715 119.053c-24.9.31-38.585 11.301-39.488 37.062 2.273 17.729 7.175 28.122 17.627 33.79 7.138 3.87 18.582 5.538 21.86 5.952 3.28-.414 14.722-2.082 21.86-5.953 10.452-5.667 15.354-16.06 17.627-33.789-.903-25.76-14.587-36.751-39.486-37.062z" style="fill:#ffeccf;fill-opacity:1;stroke:#000;stroke-width:.93356;stroke-dasharray:none;stroke-opacity:1"/></g><g id="symbol_face-1" style="display:inline"><path d="m153.715 191.559-2.71.07s.663 4.746-.22 7.615c-.883 2.87-5.543 4.706-5.367 6.48.592 5.965 6.904 8.802 8.297 9.358 1.393-.556 7.704-3.393 8.297-9.357.176-1.775-4.485-3.611-5.367-6.48-.883-2.87-.221-7.616-.221-7.616z" style="fill:#ffeccf;fill-opacity:1;stroke:#000;stroke-width:.70017;stroke-dasharray:none;stroke-opacity:1"/><path d="M115.358 165.472s-3.863-2.87-6.401 0c-2.539 2.87.22 9.38 4.083 11.478s6.291-1.987 6.291-1.987zm76.713 0s3.863-2.87 6.4 0c2.54 2.87-.22 9.38-4.083 11.478s-6.29-1.987-6.29-1.987z" style="fill:#ffeccf;fill-opacity:1;stroke:#000;stroke-width:.93356;stroke-dasharray:none;stroke-opacity:1"/><path d="M153.715 119.053c-24.9.31-38.585 11.301-39.488 37.062-1.902 16.42 3.342 26.7 14.447 32.29 8.156 4.104 22.413 4.446 25.04 4.474 2.63-.028 16.886-.37 25.042-4.475 11.104-5.589 16.347-15.87 14.445-32.289-.903-25.76-14.587-36.751-39.486-37.062z" style="fill:#ffeccf;fill-opacity:1;stroke:#000;stroke-width:.93356;stroke-dasharray:none;stroke-opacity:1"/></g></g><g id="group_eyes" style="display:inline"><g id="symbol_eyes-4" style="display:inline"><g style="display:inline"><path d="M139.978 164.744s-6.901-1.898-13.703-2.647c-7.613-.839-4.008 6.558-4.008 6.558s3.04 6.203 11.617 6.144c4.879-.033 8.243-3.168 9.443-6.977.579-1.838-3.35-3.078-3.35-3.078m27.352 0s6.901-1.898 13.703-2.647c7.613-.839 4.009 6.558 4.009 6.558s-3.041 6.203-11.618 6.144c-4.879-.033-8.243-3.168-9.443-6.977-.579-1.838 3.35-3.078 3.35-3.078" style="fill:#fff;fill-opacity:1;stroke:none;stroke-width:.23339;stroke-linecap:round;stroke-linejoin:round;stroke-dasharray:none;stroke-opacity:1" transform="translate(-148.828 -150.053)scale(1.6194)"/><path d="M143.074 166.97c-.155 3.31-2.844 7.537-6.413 7.537s-6.462-3.547-6.462-7.922c0-4.376 2.276-3.034 5.835-3.296 4.492-.331 7.189.513 7.04 3.681m21.16 0c.155 3.31 2.845 7.537 6.413 7.537s6.462-3.547 6.462-7.922c0-4.376-2.276-3.034-5.835-3.296-4.491-.331-7.189.513-7.04 3.681" style="display:inline;fill:#00676c;stroke-width:1.10959" transform="translate(-148.828 -150.053)scale(1.6194)"/><path d="M139.416 166.49c.003.078.008.155.007.234-.014 1.996-1.228 3.613-2.71 3.613-1.484 0-2.675-1.617-2.66-3.613 0-.063.006-.125.008-.188-1.633.687-2.733 1.967-2.733 3.436 0 2.193 2.446 3.97 5.463 3.97s5.464-1.777 5.464-3.97c0-1.501-1.148-2.807-2.84-3.482zm28.476 0c-.003.078-.008.155-.007.234.014 1.996 1.228 3.613 2.711 3.613s2.674-1.617 2.66-3.613c0-.063-.006-.125-.008-.188 1.632.687 2.732 1.967 2.732 3.436 0 2.193-2.446 3.97-5.463 3.97s-5.464-1.777-5.464-3.97c0-1.501 1.148-2.807 2.84-3.482z" style="display:inline;fill:#00afb7;fill-opacity:1;stroke:none;stroke-width:1.10959;stroke-dasharray:none;stroke-opacity:1" transform="translate(-148.828 -150.053)scale(1.6194)"/><path d="M143.069 166.439c0 4.375-2.893 7.922-6.462 7.922s-6.461-3.547-6.461-7.922c0-4.376 2.259-2.886 5.798-3.34 5.497-.703 7.75 1.23 7.125 3.34zm21.17 0c0 4.375 2.893 7.922 6.462 7.922s6.462-3.547 6.462-7.922c0-4.376-2.26-2.886-5.8-3.34-5.496-.703-7.75 1.23-7.124 3.34z" style="display:inline;fill:none;stroke:#000;stroke-width:.93356" transform="translate(-148.828 -150.053)scale(1.6194)"/><path d="M144.587 166.13c.907-4.648-6.904-4.048-16.932-4.738s-8.222 2.156-8.222 2.156l2.928 4.693.156-2.692s-1.656-3.392 6.047-2.282 14.101-.34 16.023 2.863m18.135 0c-.908-4.648 6.904-4.048 16.93-4.738 10.028-.69 8.223 2.156 8.223 2.156l-2.928 4.693-.156-2.692s1.656-3.392-6.047-2.282-14.101-.34-16.022 2.863" style="display:inline;fill:#000;fill-opacity:1;stroke:none;stroke-width:1.13008;stroke-dasharray:none;stroke-opacity:1" transform="translate(-148.828 -150.053)scale(1.6194)"/></g><g style="display:inline"><ellipse cx="63.29" cy="119.357" rx="2.102" ry="1.884" style="display:inline;fill:#fff;fill-opacity:1;stroke:none;stroke-width:2.4115;stroke-linecap:round;stroke-linejoin:miter;stroke-dasharray:none;stroke-opacity:1"/><ellipse cx="118.394" cy="119.272" rx="2.102" ry="1.884" style="display:inline;fill:#fff;fill-opacity:1;stroke:none;stroke-width:2.4115;stroke-linecap:round;stroke-linejoin:miter;stroke-dasharray:none;stroke-opacity:1"/></g></g><g id="symbol_eyes-3" style="display:inline;fill:#000;fill-opacity:1;stroke:none"><path d="M85.182 116.502s-2.535-6.93-6.271-7.903c-23.372-6.085-35.466 5.36-36.09 8.258l3.201.792c5.84-6.655 19.04-9.731 30.696-6.272 3.466 1.028 8.464 5.125 8.464 5.125m29.361-4.952s.122-7.38 3.332-9.524c20.083-13.415 35.262-6.57 36.802-4.037l-2.764 1.798c-7.7-4.371-21.18-2.947-31.055 4.144-2.937 2.109-6.315 7.619-6.315 7.619" style="fill:#000;fill-opacity:1;stroke:none;stroke-width:1.51181;stroke-linecap:round;stroke-linejoin:round;paint-order:fill markers stroke" transform="rotate(9.575 49.546 119.065)"/></g><g id="symbol_eyes-2" style="display:inline"><g style="display:inline"><path d="M139.506 160.937s-9.988-3.95-16.776-.093c-5.297 3.01-1.294 7.81-1.294 7.81s3.12 6.204 11.918 6.145c5.005-.033 8.838-3.07 9.687-6.977 1.236-5.693-3.535-6.885-3.535-6.885m28.023 0s9.989-3.95 16.777-.093c5.297 3.01 1.294 7.81 1.294 7.81s-3.12 6.204-11.918 6.145c-5.005-.033-8.838-3.07-9.687-6.977-1.237-5.693 3.534-6.885 3.534-6.885" style="display:inline;fill:#fff;fill-opacity:1;stroke:none;stroke-width:.236389;stroke-linecap:round;stroke-linejoin:round;stroke-dasharray:none;stroke-opacity:1" transform="translate(-148.607 -152.701)scale(1.6194)"/><path d="M141.746 166.812c0 4.367-2.412 7.907-5.387 7.907s-5.386-3.54-5.386-7.907 2.411-7.907 5.386-7.907 5.387 3.54 5.387 7.907m23.544 0c0 4.367 2.412 7.907 5.386 7.907s5.387-3.54 5.387-7.907-2.412-7.907-5.387-7.907-5.386 3.54-5.386 7.907" style="display:inline;fill:#00676c;fill-opacity:1;stroke:none;stroke-width:1.10959;stroke-dasharray:none;stroke-opacity:1" transform="translate(-148.607 -152.701)scale(1.6194)"/><path d="M134.765 166.013c-1.727.564-2.972 2.141-2.972 4.003 0 2.335 1.955 4.228 4.368 4.228s4.37-1.893 4.37-4.228c0-1.49-.798-2.796-2.001-3.55a4 4 0 0 1 .373 1.752c-.013 1.783-1.1 3.228-2.426 3.228s-2.391-1.445-2.378-3.228c.006-.854.26-1.628.666-2.205m37.506 0c1.727.564 2.972 2.141 2.972 4.003 0 2.335-1.956 4.228-4.369 4.228s-4.37-1.893-4.37-4.228c0-1.49.799-2.796 2.002-3.55a4 4 0 0 0-.373 1.752c.013 1.783 1.099 3.228 2.425 3.228 1.327 0 2.392-1.445 2.379-3.228-.006-.854-.26-1.628-.666-2.205" style="display:inline;fill:#00afb7;fill-opacity:1;stroke:none;stroke-width:1.10959;stroke-dasharray:none;stroke-opacity:1" transform="translate(-148.607 -152.701)scale(1.6194)"/><path d="M141.318 166.969c0 4.084-2.225 7.396-4.97 7.396s-4.97-3.312-4.97-7.396c0-4.085 2.225-7.396 4.97-7.396s4.97 3.31 4.97 7.396zm24.4 0c0 4.084 2.225 7.396 4.97 7.396s4.97-3.312 4.97-7.396c0-4.085-2.225-7.396-4.97-7.396s-4.97 3.31-4.97 7.396z" style="display:inline;fill:none;fill-opacity:1;stroke:#000;stroke-width:.93356;stroke-dasharray:none;stroke-opacity:1" transform="translate(-148.607 -152.701)scale(1.6194)"/><path d="M143.456 165.31c-.27-3.891-2.501-7.936-12.073-7.322-9.571.614-12.57 5.173-12.57 5.173l1.878 4.343-.123-3.394s4.82-3.733 10.997-3.814c6.178-.08 9.87 2.868 11.792 6.277zm20.123 0c.271-3.891 2.502-7.936 12.074-7.322s12.569 5.173 12.569 5.173l-1.877 4.343.122-3.394s-4.82-3.733-10.997-3.814-9.87 2.868-11.791 6.277z" style="display:inline;fill:#000;fill-opacity:1;stroke:none;stroke-width:1.13008;stroke-dasharray:none;stroke-opacity:1" transform="translate(-148.607 -152.701)scale(1.6194)"/></g><g style="display:inline" transform="translate(.22 -.649)"><ellipse cx="66.328" cy="113.028" rx="2.102" ry="1.884" style="display:inline;fill:#fff;fill-opacity:1;stroke:none;stroke-width:2.4115;stroke-linecap:round;stroke-linejoin:miter;stroke-dasharray:none;stroke-opacity:1"/><ellipse cx="122.676" cy="112.852" rx="2.102" ry="1.884" style="display:inline;fill:#fff;fill-opacity:1;stroke:none;stroke-width:2.4115;stroke-linecap:round;stroke-linejoin:miter;stroke-dasharray:none;stroke-opacity:1"/></g></g><g id="symbol_eyes-1" style="display:inline"><g style="display:inline"><path d="M142.146 158.238s-6.419-6.331-13.462-3.322c-7.042 3.01-6.417 13.739-6.417 13.739s3.04 6.203 11.617 6.144c4.879-.033 8.616-3.07 9.443-6.977 1.205-5.693-1.18-9.584-1.18-9.584m23.016 0s6.419-6.331 13.462-3.322 6.418 13.739 6.418 13.739-3.041 6.203-11.618 6.144c-4.879-.033-8.615-3.07-9.443-6.977-1.205-5.693 1.18-9.584 1.18-9.584" style="fill:#fff;fill-opacity:1;stroke:none;stroke-width:.23339;stroke-linecap:round;stroke-linejoin:round;stroke-dasharray:none;stroke-opacity:1" transform="translate(-148.828 -150.053)scale(1.6194)"/><path d="M143.36 161.291c-.32-4.035-5.2-10.182-14-7.736-8.801 2.445-9.245 12.787-9.245 12.787l3.473 4.353-1.275-4.874s.184-8.094 7.614-10.392 11.512 2.454 13.433 5.862m20.588 0c.32-4.035 5.2-10.182 14.001-7.736 8.8 2.445 9.244 12.787 9.244 12.787l-3.473 4.353 1.276-4.874s-.185-8.094-7.615-10.392-11.511 2.454-13.433 5.862" style="display:inline;fill:#000;fill-opacity:1;stroke:none;stroke-width:1.13008;stroke-dasharray:none;stroke-opacity:1" transform="translate(-148.828 -150.053)scale(1.6194)"/><path d="M143.123 166.585c0 4.375-2.893 7.922-6.462 7.922s-6.462-3.547-6.462-7.922c0-4.376 2.893-7.922 6.462-7.922s6.462 3.546 6.462 7.922m21.063 0c0 4.375 2.893 7.922 6.461 7.922s6.462-3.547 6.462-7.922c0-4.376-2.893-7.922-6.462-7.922s-6.461 3.546-6.461 7.922" style="display:inline;fill:#00676c;fill-opacity:1;stroke:none;stroke-width:1.10959;stroke-dasharray:none;stroke-opacity:1" transform="translate(-148.828 -150.053)scale(1.6194)"/><path d="M139.416 166.49c.003.078.008.155.007.234-.014 1.996-1.228 3.613-2.71 3.613-1.484 0-2.675-1.617-2.66-3.613 0-.063.006-.125.008-.188-1.633.687-2.733 1.967-2.733 3.436 0 2.193 2.446 3.97 5.463 3.97s5.464-1.777 5.464-3.97c0-1.501-1.148-2.807-2.84-3.482zm28.476 0c-.003.078-.008.155-.007.234.014 1.996 1.228 3.613 2.711 3.613s2.674-1.617 2.66-3.613c0-.063-.006-.125-.008-.188 1.632.687 2.732 1.967 2.732 3.436 0 2.193-2.446 3.97-5.463 3.97s-5.464-1.777-5.464-3.97c0-1.501 1.148-2.807 2.84-3.482z" style="display:inline;fill:#00afb7;fill-opacity:1;stroke:none;stroke-width:1.10959;stroke-dasharray:none;stroke-opacity:1" transform="translate(-148.828 -150.053)scale(1.6194)"/><path d="M143.069 166.439c0 4.375-2.893 7.922-6.462 7.922s-6.461-3.547-6.461-7.922c0-4.376 2.893-7.922 6.461-7.922s6.462 3.546 6.462 7.922zm21.17 0c0 4.375 2.893 7.922 6.462 7.922s6.462-3.547 6.462-7.922c0-4.376-2.893-7.922-6.462-7.922s-6.462 3.546-6.462 7.922z" style="display:inline;fill:none;fill-opacity:1;stroke:#000;stroke-width:.93356;stroke-dasharray:none;stroke-opacity:1" transform="translate(-148.828 -150.053)scale(1.6194)"/></g><g style="display:inline"><ellipse cx="131.462" cy="162.07" rx="1.298" ry="1.163" style="display:inline;fill:#fff;fill-opacity:1;stroke:none;stroke-width:1.48913;stroke-linecap:round;stroke-linejoin:miter;stroke-dasharray:none;stroke-opacity:1" transform="translate(-148.828 -150.053)scale(1.6194)"/><ellipse cx="119.166" cy="112.319" rx="2.102" ry="1.884" style="display:inline;fill:#fff;fill-opacity:1;stroke:none;stroke-width:2.4115;stroke-linecap:round;stroke-linejoin:miter;stroke-dasharray:none;stroke-opacity:1"/></g></g></g><g id="group_mouth" style="display:inline"><g id="symbol_mouth-3" style="display:inline"><path d="M145.426 183.811s1.969 2.269 3.907 2.759c1.156.292 2.798-1.198 3.552-1.156m7.322-1.603s-1.763 2.28-3.702 2.77c-1.156.293-2.797-1.197-3.552-1.155m7.254-1.615s-1.968 2.269-3.906 2.759c-1.157.292-2.798-1.198-3.553-1.156m-7.322-1.603s1.764 2.28 3.702 2.77c1.156.293 2.798-1.197 3.553-1.155" style="display:inline;fill:none;fill-opacity:1;stroke:#000;stroke-width:.893287;stroke-linecap:round;stroke-linejoin:miter;stroke-dasharray:none;stroke-opacity:1" transform="translate(-147.472 -158.467)scale(1.6194)"/></g><g id="symbol_mouth-2" style="display:inline"><path d="M396.206 130.344c-1.022 8.035-7.442 14.653-16.622 14.653s-15.332-6.654-16.622-14.653c-2.702-16.747 7.442-14.91 16.622-14.91s18.846-2.571 16.622 14.91" style="display:inline;fill:#000;fill-opacity:1;stroke:#000;stroke-width:3.01422;stroke-linecap:round;stroke-linejoin:round;stroke-dasharray:none;stroke-opacity:1;paint-order:fill markers stroke" transform="matrix(.62885 0 0 .40003 -138.19 91.903)"/><path d="M379.585 115.434c-4.553 0-9.233.572-12.52 2.68a13.023 5.132 0 0 0-.478 1.358 13.023 5.132 0 0 0 13.023 5.131 13.023 5.132 0 0 0 13.022-5.131 13.023 5.132 0 0 0-.593-1.534q-.003-.002-.006-.005c-3.242-2.073-7.86-2.5-12.448-2.5z" style="display:inline;fill:#fff;fill-opacity:1;stroke:#000;stroke-width:1.50711;stroke-linecap:round;stroke-linejoin:round;stroke-dasharray:none;stroke-opacity:1;paint-order:fill markers stroke" transform="matrix(.62885 0 0 .40003 -138.19 91.903)"/><path d="M380.094 133.098a15.451 7.836 0 0 0-14.138 4.712c2.893 4.267 7.574 7.187 13.629 7.187 6.33 0 11.293-3.166 14.137-7.753a15.451 7.836 0 0 0-13.628-4.146" style="display:inline;fill:#ffb5ac;fill-opacity:1;stroke:#000;stroke-width:1.50711;stroke-linecap:round;stroke-linejoin:round;stroke-dasharray:none;stroke-opacity:1;paint-order:fill markers stroke" transform="matrix(.62885 0 0 .40003 -138.19 91.903)"/></g><g id="symbol_mouth-1" style="display:inline"><path d="M147.3 184.97s.537 1.19 2.476 1.68c1.156.292 2.286.404 3.04.446a16.5 16.5 0 0 0 3.042-.446c1.938-.49 2.475-1.68 2.475-1.68" style="fill:none;fill-opacity:1;stroke:#000;stroke-width:.893287;stroke-linecap:round;stroke-linejoin:miter;stroke-dasharray:none;stroke-opacity:1" transform="translate(-147.472 -155.487)scale(1.6194)"/></g></g><g id="group_eyebrows"><g id="symbol_eyebrows-2"><path d="M77.476 84.87c2.453.986 5.85 4.194 4.194 6.733s-15.01-3.974-15.01-3.974 7.363-4.146 10.816-2.759m45.048 0c-2.453.986-5.85 4.194-4.194 6.733s15.01-3.974 15.01-3.974-7.363-4.146-10.816-2.759" style="fill:#007b81;fill-opacity:1;stroke:#000;stroke-width:1.51181;stroke-linecap:round;stroke-linejoin:round;paint-order:fill markers stroke"/></g><g id="symbol_eyebrows-1" style="display:inline"><path d="M84.363 95.57c3.935 3.43 1.647 6.497-1.249 5.306-4.755-4.28-7.81-3.214-16.378-2.042 3.548-3.003 12.4-7.408 17.627-3.265zm25.626 0c-3.935 3.43-1.647 6.497 1.248 5.306 4.756-4.28 7.81-3.214 16.379-2.042-3.548-3.003-12.4-7.408-17.627-3.265z" style="fill:#009fa6;fill-opacity:1;stroke:#000;stroke-width:.93356;stroke-linecap:round;stroke-linejoin:miter;stroke-dasharray:none;stroke-opacity:1" transform="translate(-57.367 -71.206)scale(1.6194)"/></g></g><g id="group_front-hair" style="display:inline"><g id="symbol_front-hair-4" style="display:inline"><g style="display:inline"><path d="M35.537 108.376S14.688 84.29 23.84 57.169c6.867-20.355 32.226-34.213 32.226-34.213S42.601 33.55 43.925 45.029s7.063 20.086 7.063 20.086-.829 19.897-5.244 27.623c-4.414 7.725-10.207 15.638-10.207 15.638m128.926 0s20.849-24.086 11.698-51.207c-6.867-20.355-32.226-34.213-32.226-34.213s13.464 10.595 12.14 22.073-7.063 20.086-7.063 20.086.829 19.897 5.244 27.623c4.414 7.725 10.207 15.638 10.207 15.638" style="display:inline;fill:#007b81;fill-opacity:1;stroke:#000;stroke-width:1.51181;stroke-linecap:round;stroke-linejoin:round;paint-order:fill markers stroke"/><path d="M50.235 78.045s1.75 2.751 16.097-4.312 13.13-17.226 13.13-17.226-7.504-16.997-6.18-27.592 6.305-20.09 6.305-20.09-19.818 3.077-29.26 13.027c-7.432 7.831-11.92 15.01-10.375 30.681s10.283 25.512 10.283 25.512m99.53 0s-1.75 2.751-16.097-4.312-13.13-17.226-13.13-17.226 7.504-16.997 6.18-27.592-6.305-20.09-6.305-20.09 19.818 3.077 29.26 13.027c7.432 7.831 11.92 15.01 10.375 30.681s-10.283 25.512-10.283 25.512" style="display:inline;fill:#007b81;fill-opacity:1;stroke:#000;stroke-width:1.51181;stroke-linecap:round;stroke-linejoin:round;paint-order:fill markers stroke"/><path d="M100 3.238c-18.09-.064-16.278 1.683-23.434 7.346-5.195 4.112-4.991 19.914-4.562 30.03C72.33 48.31 77.4 63.09 77.4 63.09s9.828 4.857 22.121 4.398q.237-.01.479-.092.242.083.479.092c12.293.46 22.12-4.398 22.12-4.398s5.07-14.779 5.397-22.477c.43-10.115.633-25.917-4.562-30.029-7.156-5.663-5.343-7.41-23.434-7.346" style="display:inline;fill:#007b81;fill-opacity:1;stroke:#000;stroke-width:1.51181;stroke-linecap:round;stroke-linejoin:round;paint-order:fill markers stroke"/></g><path d="M102.198 68.095s-15.783 5.187-23.287.552c-7.505-4.636-.442-23.95-.442-23.95s-14.568 20.75-7.505 27.15c7.064 6.401 31.234-3.752 31.234-3.752" style="display:inline;fill:#007b81;fill-opacity:1;stroke:#000;stroke-width:1.51181;stroke-linecap:round;stroke-linejoin:round;stroke-opacity:1;paint-order:fill markers stroke"/></g><g id="symbol_front-hair-3" style="display:inline"><path d="M111.44 34.962S93.67 62.825 80.85 72.732c-8.77 6.778-30.28 13.736-30.28 13.736l.937-6.868s18.515-6.865 26.221-12.798c8.827-6.796 21.851-25.285 21.851-25.285s-15.543 14.068-24.66 19.042c-7.367 4.019-23.724 8.428-23.724 8.428l9.052-33.713s20.29-8.428 33.401-7.18 17.793 6.868 17.793 6.868" style="display:inline;fill:#007b81;fill-opacity:1;stroke:#000;stroke-width:1.51181;stroke-linecap:round;stroke-linejoin:round;paint-order:fill markers stroke"/><path d="M110.816 34.337s8.74 24.349 20.602 34.026c11.862 9.676 20.603 10.925 20.603 10.925s-.312-39.644-11.238-42.766-29.967-2.185-29.967-2.185" style="display:inline;fill:#007b81;fill-opacity:1;stroke:#000;stroke-width:1.51181;stroke-linecap:round;stroke-linejoin:round;paint-order:fill markers stroke"/><path d="M93.449 34.727s-25.023 3.238-30.1 22.442c-5.077 19.203-2.87 116.103-1.766 121.842s10.154 14.127 10.154 14.127-18.762-6.843-20.97-13.023-2.648-28.033-2.648-28.033l-.883 20.087s-8.388-21.632-8.608-27.812c1.062-26.605-15.95-96.832 20.679-112.802 17.857-7.786 34.142 3.172 34.142 3.172m21.873 0s25.023 3.238 30.1 22.442c5.076 19.203 2.87 116.103 1.766 121.842s-10.154 14.127-10.154 14.127 18.762-6.843 20.97-13.023 2.648-28.033 2.648-28.033l.883 20.087s8.388-21.632 8.608-27.812c-1.062-26.605 15.95-96.832-20.679-112.802-17.857-7.786-34.142 3.172-34.142 3.172" style="display:inline;fill:#007b81;fill-opacity:1;stroke:#000;stroke-width:1.51181;stroke-linecap:round;stroke-linejoin:round;paint-order:fill markers stroke" transform="translate(-4.385 -.56)"/></g><g id="symbol_front-hair-2" style="display:inline"><path d="M153.369 87.355s-9.21-14.918-22.918-24.447c-18.87-1.98-29.538 9.323-35.818 9.877 4.991-15.62 28.4-27.915 39.61-24.392 9.93 3.121 19.126 38.962 19.126 38.962" style="display:inline;fill:#005f64;fill-opacity:1;stroke:#000;stroke-width:1.51181;stroke-linecap:round;stroke-linejoin:round;stroke-dasharray:none;stroke-opacity:1;paint-order:fill markers stroke"/><path d="M129.789 62.62s13.266-6.017 15.694 3.915 3.95 35.663 14.545 42.726 22.956 7.284 22.956 7.284-7.284-3.09-9.933-12.802 2.87-30.902-7.725-50.989-27.812-22.293-27.812-22.293-8.167-16.555-43.042-18.542C59.597 9.933 39.51 69.53 26.708 74.386S6.843 76.15 6.843 76.15s4.856 13.023 14.788 14.127 12.45 2.302 12.45 2.302-3.62 6.086-1.855 16.24 13.244 16.333 13.244 16.333-4.635-11.257-2.207-15.892 5.077-4.856 5.077-4.856 12.14 10.815 28.474 1.103 29.547-48.653 35.816-51.61c12.93-6.098 17.159 8.722 17.159 8.722" style="display:inline;fill:#007b81;fill-opacity:1;stroke:#000;stroke-width:1.51181;stroke-linecap:round;stroke-linejoin:round;stroke-dasharray:none;stroke-opacity:1;paint-order:fill markers stroke"/><path d="M128.208 42.568s-.923-1.376-2.499-3.195c-3.286-3.795-9.411-9.514-15.924-8.678-5.167.663-11.648 14.73-20.32 27.856-7.502 11.355-16.644 22.004-27.992 22.656-24.464 1.407-25.917-11.012-25.917-11.012s14.35 5.398 20.396-1.512c6.045-6.91 10.317-24.043 10.317-24.043" style="display:inline;fill:none;fill-opacity:1;stroke:#000;stroke-width:1.51181;stroke-linecap:round;stroke-linejoin:round;stroke-dasharray:none;stroke-opacity:1;paint-order:fill markers stroke"/></g><g id="symbol_front-hair-1" style="display:inline"><path d="M61.363 74.386s-13.244 16.113-8.388 39.73c4.856 23.619 15.977 30.145 15.977 30.145s-7.508-20.94-4.5-34.338c3.506-15.607 13.465-20.086 13.465-20.086s3.09-12.361-.883-17.659-15.671 2.208-15.671 2.208m70.493 0s13.244 16.113 8.388 39.73c-4.856 23.619-15.977 30.145-15.977 30.145s7.508-20.94 4.499-34.338c-3.505-15.607-13.464-20.086-13.464-20.086s-3.09-12.361.882-17.659c3.974-5.297 15.672 2.208 15.672 2.208" style="display:inline;fill:#007b81;fill-opacity:1;stroke:#000;stroke-width:.93356;stroke-linecap:round;stroke-linejoin:round;stroke-dasharray:none;stroke-opacity:1" transform="translate(-56.45 -78.55)scale(1.6194)"/><path d="M127.956 112.169s-6.843 25.825 6.18 39.069c13.023 13.243 29.137 14.568 29.137 14.568s3.752-22.956-2.87-36.42-32.447-17.217-32.447-17.217" style="display:inline;fill:#007b81;fill-opacity:1;stroke:#000;stroke-width:.93356;stroke-linecap:round;stroke-linejoin:round;stroke-dasharray:none;stroke-opacity:1" transform="translate(-148.926 -155.866)scale(1.6194)"/><path d="M136.313 109.545s9.27 27.59 29.577 35.979c20.307 8.387 29.578 6.621 29.578 6.621s-6.401-31.343-21.41-39.952-37.745-2.648-37.745-2.648" style="display:inline;fill:#007b81;fill-opacity:1;stroke:#000;stroke-width:.93356;stroke-linecap:round;stroke-linejoin:round;stroke-dasharray:none;stroke-opacity:1" transform="translate(-148.926 -155.866)scale(1.6194)"/></g></g></svg>